<svg xmlns="http://www.w3.org/2000/svg"  viewBox="0 0 48 48" width="50px" height="50px" baseProfile="basic"><path d="M17,43h14c5.523,0,10-4.477,10-10v-2H7v2C7,38.523,11.477,43,17,43z"/><path fill="#fff" d="M32,40H16c-4.418,0-8-3.582-8-8V16c0-4.418,3.582-8,8-8h16c4.418,0,8,3.582,8,8v16	C40,36.418,36.418,40,32,40z"/><path d="M32,41H16c-4.962,0-9-4.038-9-9V16c0-4.962,4.038-9,9-9h16c4.962,0,9,4.038,9,9v16C41,36.962,36.962,41,32,41z M16,9	c-3.86,0-7,3.14-7,7v16c0,3.86,3.14,7,7,7h16c3.86,0,7-3.14,7-7V16c0-3.86-3.14-7-7-7H16z"/><path d="M24,15c-4.962,0-9,4.038-9,9s4.038,9,9,9s9-4.038,9-9S28.962,15,24,15z M24,31c-3.86,0-7-3.14-7-7s3.14-7,7-7s7,3.14,7,7	S27.86,31,24,31z"/><circle cx="33.5" cy="14.5" r="1.5"/></svg>